<?xml version="1.0" encoding="utf-8"?>
<!-- Generator: Adobe Illustrator 16.0.0, SVG Export Plug-In . SVG Version: 6.00 Build 0)  -->
<!DOCTYPE svg PUBLIC "-//W3C//DTD SVG 1.1//EN" "http://www.w3.org/Graphics/SVG/1.1/DTD/svg11.dtd">
<svg version="1.1" id="Layer_1" xmlns="http://www.w3.org/2000/svg" xmlns:xlink="http://www.w3.org/1999/xlink" x="0px" y="0px"
	 width="227.317px" height="297.073px" viewBox="0 0 227.317 297.073" enable-background="new 0 0 227.317 297.073"
	 xml:space="preserve">
<path fill="#991B1E" stroke="#991B1E" stroke-width="7" stroke-miterlimit="10" d="M207.066,152.6c0,12.276-2.167,23.396-6.5,33.335
	c-4.335,9.953-10.694,18.425-19.076,25.414c-8.391,6.992-18.661,12.395-30.809,16.206c-12.15,3.809-26.116,5.707-41.89,5.707
	c-17.336,0-32.047-1.818-44.127-5.451c-12.082-3.644-21.927-8.783-29.521-15.436c-7.606-6.653-13.149-14.641-16.628-23.964
	c-3.49-9.318-5.23-19.721-5.23-31.208V7.293h37.95v147.518c0,8.762,1.024,16.435,3.089,23.027
	c2.062,6.59,5.438,12.108,10.127,16.543c4.688,4.436,10.766,7.788,18.229,10.059c7.462,2.277,16.587,3.412,27.392,3.412
	c20.179,0,35.071-4.655,44.665-13.981c9.591-9.326,14.385-22.457,14.385-39.396V7.293h37.945V152.6z"/>
<rect x="2.868" y="264.004" fill="#294F74" width="220.769" height="29.905"/>
</svg>
