<?xml version="1.0" encoding="utf-8"?>
<!-- Generator: Adobe Illustrator 16.0.0, SVG Export Plug-In . SVG Version: 6.00 Build 0)  -->
<!DOCTYPE svg PUBLIC "-//W3C//DTD SVG 1.1//EN" "http://www.w3.org/Graphics/SVG/1.1/DTD/svg11.dtd">
<svg version="1.1" id="Layer_1" xmlns="http://www.w3.org/2000/svg" xmlns:xlink="http://www.w3.org/1999/xlink" x="0px" y="0px"
	 width="831.777px" height="83.902px" viewBox="0 0 831.777 83.902" enable-background="new 0 0 831.777 83.902"
	 xml:space="preserve">
<path fill="#003366" d="M33.407,2.303v42.032c0,2.254,0.085,4.561,0.257,6.918c0.169,2.359,0.682,4.494,1.538,6.407
	c0.853,1.916,2.204,3.47,4.048,4.665c1.846,1.195,4.442,1.793,7.791,1.793c3.348,0,5.928-0.598,7.739-1.793
	c1.811-1.197,3.16-2.751,4.05-4.665c0.887-1.913,1.417-4.048,1.589-6.407c0.169-2.358,0.256-4.663,0.256-6.918V2.303h19.99V47.1
	c0,12.03-2.754,20.811-8.253,26.347c-5.502,5.536-13.96,8.304-25.372,8.304c-11.414,0-19.888-2.768-25.421-8.304
	c-5.536-5.537-8.304-14.316-8.304-26.347V2.303H33.407z"/>
<path fill="#003366" d="M161.136,79.597h-25.014L116.954,49.87v29.728H96.862V2.303h31.265c4.306,0,8.063,0.634,11.276,1.896
	c3.212,1.267,5.858,2.991,7.945,5.18c2.083,2.187,3.655,4.713,4.715,7.586c1.06,2.869,1.589,5.944,1.589,9.225
	c0,5.877-1.417,10.645-4.254,14.301c-2.836,3.652-7.021,6.134-12.558,7.43L161.136,79.597z M116.954,36.849h3.792
	c3.962,0,7.005-0.819,9.123-2.46c2.116-1.642,3.177-3.998,3.177-7.073s-1.061-5.433-3.177-7.073
	c-2.119-1.642-5.162-2.461-9.123-2.461h-3.792V36.849z"/>
<path fill="#003366" d="M169.54,2.303h29.933c7.106,0,12.506,1.71,16.196,5.128c3.69,3.418,5.537,8.337,5.537,14.762
	c0,3.896-0.703,7.125-2.102,9.687c-1.401,2.563-3.535,4.734-6.406,6.51c2.871,0.547,5.313,1.383,7.33,2.512
	c2.014,1.125,3.655,2.512,4.919,4.151c1.264,1.642,2.169,3.483,2.717,5.535c0.546,2.052,0.82,4.239,0.82,6.562
	c0,3.622-0.633,6.835-1.896,9.635c-1.265,2.805-3.042,5.161-5.331,7.075c-2.291,1.915-5.073,3.348-8.354,4.306
	c-3.28,0.958-6.97,1.436-11.071,1.436H169.54V2.303L169.54,2.303z M189.632,32.648h3.69c6.286,0,9.433-2.494,9.433-7.485
	c0-4.986-3.145-7.482-9.433-7.482h-3.69V32.648z M189.632,64.014h4.407c5.057,0,8.678-0.646,10.865-1.947
	c2.186-1.298,3.281-3.381,3.281-6.252c0-2.87-1.095-4.955-3.281-6.254c-2.187-1.297-5.809-1.946-10.865-1.946h-4.407V64.014z"/>
<path fill="#003366" d="M286.71,66.168h-28.704l-4.612,13.43h-21.426l29.42-77.294h21.937l29.42,77.294H291.32L286.71,66.168z
	 M281.378,50.895l-9.02-25.732l-9.021,25.732H281.378z"/>
<path fill="#A61E22" d="M341.654,2.303v60.277h24.089v17.015h-44.182V2.303H341.654z"/>
<path fill="#A61E22" d="M394.754,2.303v42.032c0,2.254,0.084,4.561,0.257,6.918c0.169,2.359,0.684,4.494,1.537,6.407
	c0.853,1.916,2.205,3.47,4.05,4.665c1.844,1.195,4.441,1.793,7.79,1.793c3.347,0,5.928-0.598,7.74-1.793
	c1.809-1.197,3.159-2.751,4.049-4.665c0.888-1.913,1.418-4.048,1.587-6.407c0.17-2.358,0.258-4.663,0.258-6.918V2.303h19.989V47.1
	c0,12.03-2.753,20.811-8.253,26.347c-5.502,5.536-13.958,8.304-25.371,8.304s-19.888-2.768-25.424-8.304
	c-5.536-5.537-8.302-14.316-8.302-26.347V2.303H394.754z"/>
<path fill="#A61E22" d="M522.479,79.597h-25.011l-19.17-29.728v29.728h-20.093V2.303h31.268c4.304,0,8.062,0.634,11.275,1.896
	c3.212,1.267,5.859,2.991,7.944,5.18c2.085,2.187,3.655,4.713,4.716,7.586c1.059,2.869,1.59,5.944,1.59,9.225
	c0,5.877-1.419,10.645-4.257,14.301c-2.837,3.652-7.021,6.134-12.557,7.43L522.479,79.597z M478.299,36.849h3.792
	c3.963,0,7.006-0.819,9.124-2.46c2.116-1.642,3.177-3.998,3.177-7.073s-1.061-5.433-3.177-7.073
	c-2.118-1.642-5.161-2.461-9.124-2.461h-3.792V36.849z"/>
<path fill="#A61E22" d="M530.886,2.303h29.932c7.107,0,12.508,1.71,16.196,5.128c3.691,3.418,5.537,8.337,5.537,14.762
	c0,3.896-0.7,7.125-2.102,9.687c-1.4,2.563-3.535,4.734-6.406,6.51c2.87,0.547,5.315,1.383,7.329,2.512
	c2.015,1.125,3.654,2.512,4.92,4.151c1.265,1.642,2.169,3.483,2.717,5.535c0.547,2.052,0.819,4.239,0.819,6.562
	c0,3.622-0.632,6.835-1.896,9.635c-1.265,2.805-3.042,5.161-5.33,7.075c-2.291,1.915-5.074,3.348-8.356,4.306
	c-3.28,0.958-6.969,1.436-11.07,1.436h-32.289L530.886,2.303L530.886,2.303z M550.977,32.648h3.69c6.287,0,9.431-2.494,9.431-7.485
	c0-4.986-3.144-7.482-9.431-7.482h-3.69V32.648z M550.977,64.014h4.407c5.056,0,8.678-0.646,10.868-1.947
	c2.186-1.298,3.278-3.381,3.278-6.252c0-2.87-1.093-4.955-3.278-6.254c-2.189-1.297-5.812-1.946-10.868-1.946h-4.407V64.014z"/>
<path fill="#A61E22" d="M648.054,66.168h-28.702l-4.611,13.43h-21.426l29.419-77.294h21.939l29.419,77.294h-21.426L648.054,66.168z
	 M642.724,50.895l-9.023-25.732l-9.021,25.732H642.724z"/>
</svg>
